<mxfile host="app.diagrams.net" modified="2023-11-04T06:38:29.316Z" agent="Mozilla/5.0 (Windows NT 10.0; Win64; x64) AppleWebKit/537.36 (KHTML, like Gecko) Chrome/118.0.0.0 Safari/537.36" etag="IG70djbRCmbg0cvw0Ztb" version="22.0.8" type="device">
  <diagram name="Page-1" id="1pqJ4bRmGJyCpYZn2NP5">
    <mxGraphModel dx="1050" dy="534" grid="1" gridSize="10" guides="1" tooltips="1" connect="1" arrows="1" fold="1" page="1" pageScale="1" pageWidth="1100" pageHeight="850" math="0" shadow="0">
      <root>
        <mxCell id="0" />
        <mxCell id="1" parent="0" />
        <mxCell id="yjYm0omWvNplvsOF7ljS-1" value="&lt;b&gt;EVENT LINK&lt;/b&gt;" style="ellipse;whiteSpace=wrap;html=1;" vertex="1" parent="1">
          <mxGeometry x="493" y="20" width="115" height="60" as="geometry" />
        </mxCell>
        <mxCell id="yjYm0omWvNplvsOF7ljS-2" value="" style="endArrow=classic;startArrow=classic;html=1;rounded=0;entryX=0.5;entryY=1;entryDx=0;entryDy=0;" edge="1" parent="1" target="yjYm0omWvNplvsOF7ljS-1">
          <mxGeometry width="50" height="50" relative="1" as="geometry">
            <mxPoint x="240" y="160" as="sourcePoint" />
            <mxPoint x="580" y="220" as="targetPoint" />
            <Array as="points">
              <mxPoint x="240" y="120" />
              <mxPoint x="550" y="120" />
            </Array>
          </mxGeometry>
        </mxCell>
        <mxCell id="yjYm0omWvNplvsOF7ljS-4" value="" style="endArrow=classic;html=1;rounded=0;" edge="1" parent="1">
          <mxGeometry width="50" height="50" relative="1" as="geometry">
            <mxPoint x="460" y="120" as="sourcePoint" />
            <mxPoint x="870" y="160" as="targetPoint" />
            <Array as="points">
              <mxPoint x="870" y="120" />
            </Array>
          </mxGeometry>
        </mxCell>
        <mxCell id="yjYm0omWvNplvsOF7ljS-28" style="edgeStyle=orthogonalEdgeStyle;rounded=0;orthogonalLoop=1;jettySize=auto;html=1;exitX=0.5;exitY=1;exitDx=0;exitDy=0;" edge="1" parent="1" source="yjYm0omWvNplvsOF7ljS-12" target="yjYm0omWvNplvsOF7ljS-26">
          <mxGeometry relative="1" as="geometry" />
        </mxCell>
        <mxCell id="yjYm0omWvNplvsOF7ljS-12" value="&lt;b&gt;USER&lt;/b&gt;" style="ellipse;whiteSpace=wrap;html=1;" vertex="1" parent="1">
          <mxGeometry x="190" y="160" width="90" height="50" as="geometry" />
        </mxCell>
        <mxCell id="yjYm0omWvNplvsOF7ljS-13" value="" style="endArrow=classic;html=1;rounded=0;" edge="1" parent="1">
          <mxGeometry width="50" height="50" relative="1" as="geometry">
            <mxPoint x="550" y="120" as="sourcePoint" />
            <mxPoint x="550" y="160" as="targetPoint" />
          </mxGeometry>
        </mxCell>
        <mxCell id="yjYm0omWvNplvsOF7ljS-24" style="edgeStyle=orthogonalEdgeStyle;rounded=0;orthogonalLoop=1;jettySize=auto;html=1;entryX=1;entryY=0.5;entryDx=0;entryDy=0;" edge="1" parent="1" source="yjYm0omWvNplvsOF7ljS-16" target="yjYm0omWvNplvsOF7ljS-20">
          <mxGeometry relative="1" as="geometry">
            <Array as="points">
              <mxPoint x="865" y="290" />
            </Array>
          </mxGeometry>
        </mxCell>
        <mxCell id="yjYm0omWvNplvsOF7ljS-16" value="&lt;b&gt;ADMIN&lt;/b&gt;" style="ellipse;whiteSpace=wrap;html=1;" vertex="1" parent="1">
          <mxGeometry x="820" y="160" width="90" height="50" as="geometry" />
        </mxCell>
        <mxCell id="yjYm0omWvNplvsOF7ljS-19" style="edgeStyle=orthogonalEdgeStyle;rounded=0;orthogonalLoop=1;jettySize=auto;html=1;" edge="1" parent="1" source="yjYm0omWvNplvsOF7ljS-17" target="yjYm0omWvNplvsOF7ljS-20">
          <mxGeometry relative="1" as="geometry">
            <mxPoint x="550" y="280" as="targetPoint" />
          </mxGeometry>
        </mxCell>
        <mxCell id="yjYm0omWvNplvsOF7ljS-21" style="edgeStyle=orthogonalEdgeStyle;rounded=0;orthogonalLoop=1;jettySize=auto;html=1;entryX=0;entryY=0.5;entryDx=0;entryDy=0;" edge="1" parent="1" source="yjYm0omWvNplvsOF7ljS-17" target="yjYm0omWvNplvsOF7ljS-16">
          <mxGeometry relative="1" as="geometry" />
        </mxCell>
        <mxCell id="yjYm0omWvNplvsOF7ljS-17" value="&lt;b&gt;DEVELOPER&lt;/b&gt;" style="ellipse;whiteSpace=wrap;html=1;" vertex="1" parent="1">
          <mxGeometry x="505" y="160" width="90" height="50" as="geometry" />
        </mxCell>
        <mxCell id="yjYm0omWvNplvsOF7ljS-30" style="edgeStyle=orthogonalEdgeStyle;rounded=0;orthogonalLoop=1;jettySize=auto;html=1;entryX=0.5;entryY=0;entryDx=0;entryDy=0;" edge="1" parent="1" source="yjYm0omWvNplvsOF7ljS-20" target="yjYm0omWvNplvsOF7ljS-33">
          <mxGeometry relative="1" as="geometry">
            <mxPoint x="160" y="400" as="targetPoint" />
            <Array as="points">
              <mxPoint x="550" y="360" />
              <mxPoint x="276" y="360" />
            </Array>
          </mxGeometry>
        </mxCell>
        <mxCell id="yjYm0omWvNplvsOF7ljS-32" style="edgeStyle=orthogonalEdgeStyle;rounded=0;orthogonalLoop=1;jettySize=auto;html=1;" edge="1" parent="1" source="yjYm0omWvNplvsOF7ljS-20">
          <mxGeometry relative="1" as="geometry">
            <mxPoint x="550" y="400" as="targetPoint" />
          </mxGeometry>
        </mxCell>
        <mxCell id="yjYm0omWvNplvsOF7ljS-20" value="&lt;b&gt;LOGIN&lt;/b&gt;" style="rounded=0;whiteSpace=wrap;html=1;" vertex="1" parent="1">
          <mxGeometry x="490" y="260" width="120" height="60" as="geometry" />
        </mxCell>
        <mxCell id="yjYm0omWvNplvsOF7ljS-22" value="&lt;b&gt;PROVIDES A UNIQUE LOGIN ID &lt;br&gt;AND PASSWORD&lt;/b&gt;" style="text;html=1;align=center;verticalAlign=middle;resizable=0;points=[];autosize=1;strokeColor=none;fillColor=none;" vertex="1" parent="1">
          <mxGeometry x="598" y="140" width="200" height="40" as="geometry" />
        </mxCell>
        <mxCell id="yjYm0omWvNplvsOF7ljS-29" style="edgeStyle=orthogonalEdgeStyle;rounded=0;orthogonalLoop=1;jettySize=auto;html=1;entryX=0;entryY=0.5;entryDx=0;entryDy=0;" edge="1" parent="1" source="yjYm0omWvNplvsOF7ljS-26" target="yjYm0omWvNplvsOF7ljS-20">
          <mxGeometry relative="1" as="geometry" />
        </mxCell>
        <mxCell id="yjYm0omWvNplvsOF7ljS-26" value="&lt;b&gt;SIGN UP&lt;/b&gt;" style="rounded=1;whiteSpace=wrap;html=1;" vertex="1" parent="1">
          <mxGeometry x="187.5" y="265" width="95" height="50" as="geometry" />
        </mxCell>
        <mxCell id="yjYm0omWvNplvsOF7ljS-47" style="edgeStyle=orthogonalEdgeStyle;rounded=0;orthogonalLoop=1;jettySize=auto;html=1;exitX=0.5;exitY=1;exitDx=0;exitDy=0;" edge="1" parent="1" source="yjYm0omWvNplvsOF7ljS-33" target="yjYm0omWvNplvsOF7ljS-44">
          <mxGeometry relative="1" as="geometry" />
        </mxCell>
        <mxCell id="yjYm0omWvNplvsOF7ljS-33" value="&lt;b&gt;USER&lt;/b&gt;" style="rounded=1;whiteSpace=wrap;html=1;" vertex="1" parent="1">
          <mxGeometry x="228.75" y="400" width="95" height="50" as="geometry" />
        </mxCell>
        <mxCell id="yjYm0omWvNplvsOF7ljS-34" value="&lt;b&gt;DEVELOPER&lt;/b&gt;" style="rounded=1;whiteSpace=wrap;html=1;" vertex="1" parent="1">
          <mxGeometry x="503" y="400" width="95" height="50" as="geometry" />
        </mxCell>
        <mxCell id="yjYm0omWvNplvsOF7ljS-38" style="edgeStyle=orthogonalEdgeStyle;rounded=0;orthogonalLoop=1;jettySize=auto;html=1;exitX=0.5;exitY=1;exitDx=0;exitDy=0;" edge="1" parent="1" source="yjYm0omWvNplvsOF7ljS-35" target="yjYm0omWvNplvsOF7ljS-39">
          <mxGeometry relative="1" as="geometry">
            <mxPoint x="918" y="480" as="targetPoint" />
          </mxGeometry>
        </mxCell>
        <mxCell id="yjYm0omWvNplvsOF7ljS-35" value="&lt;b&gt;ADMIN&lt;/b&gt;" style="rounded=1;whiteSpace=wrap;html=1;" vertex="1" parent="1">
          <mxGeometry x="800" y="400" width="95" height="50" as="geometry" />
        </mxCell>
        <mxCell id="yjYm0omWvNplvsOF7ljS-39" value="&lt;b&gt;AUTHENTICATED&lt;/b&gt;" style="html=1;whiteSpace=wrap;aspect=fixed;shape=isoRectangle;" vertex="1" parent="1">
          <mxGeometry x="781.25" y="470" width="132.5" height="79.5" as="geometry" />
        </mxCell>
        <mxCell id="yjYm0omWvNplvsOF7ljS-40" value="&lt;b&gt;AUTHENTICATED&lt;/b&gt;" style="html=1;whiteSpace=wrap;aspect=fixed;shape=isoRectangle;" vertex="1" parent="1">
          <mxGeometry x="484" y="470" width="132.5" height="79.5" as="geometry" />
        </mxCell>
        <mxCell id="yjYm0omWvNplvsOF7ljS-43" style="edgeStyle=orthogonalEdgeStyle;rounded=0;orthogonalLoop=1;jettySize=auto;html=1;entryX=0.51;entryY=0.03;entryDx=0;entryDy=0;entryPerimeter=0;" edge="1" parent="1" source="yjYm0omWvNplvsOF7ljS-34" target="yjYm0omWvNplvsOF7ljS-40">
          <mxGeometry relative="1" as="geometry">
            <Array as="points">
              <mxPoint x="551" y="470" />
              <mxPoint x="552" y="470" />
            </Array>
          </mxGeometry>
        </mxCell>
        <mxCell id="yjYm0omWvNplvsOF7ljS-44" value="&lt;b&gt;AUTHENTICATED&lt;/b&gt;" style="html=1;whiteSpace=wrap;aspect=fixed;shape=isoRectangle;" vertex="1" parent="1">
          <mxGeometry x="210" y="470" width="132.5" height="79.5" as="geometry" />
        </mxCell>
        <mxCell id="yjYm0omWvNplvsOF7ljS-48" value="" style="edgeStyle=segmentEdgeStyle;endArrow=classic;html=1;curved=0;rounded=0;endSize=8;startSize=8;entryX=0.5;entryY=0;entryDx=0;entryDy=0;" edge="1" parent="1" target="yjYm0omWvNplvsOF7ljS-35">
          <mxGeometry width="50" height="50" relative="1" as="geometry">
            <mxPoint x="550" y="360" as="sourcePoint" />
            <mxPoint x="460" y="300" as="targetPoint" />
          </mxGeometry>
        </mxCell>
      </root>
    </mxGraphModel>
  </diagram>
</mxfile>
